<?xml version="1.0" encoding="UTF-8"?> <svg xmlns="http://www.w3.org/2000/svg" width="111" height="28" viewBox="0 0 111 28" fill="none"><g clip-path="url(#clip0_108_1844)"><path d="M7.49098 12.2578V27.6067H0V18.1584C0 18.0889 0.406393 16.991 0.476148 16.8216C1.25254 14.9374 2.92967 13.3345 4.85549 12.6359C5.00713 12.5814 6.01098 12.2578 6.07467 12.2578H7.49402H7.49098Z" fill="#90A627"></path><path d="M7.49011 0.23877V10.4462H6.28913C6.07683 10.4462 4.90618 10.0923 4.63929 9.98947C2.71044 9.23942 1.06363 7.50038 0.347897 5.57383C0.29634 5.43471 -0.00390625 4.59997 -0.00390625 4.54856V0.23877H7.48708H7.49011Z" fill="#A2BEF6"></path><path d="M15.8228 0.456543L29.5371 18.845L29.6826 18.8087V6.35112C29.5219 5.35306 29.7221 4.1312 29.1883 3.2269C28.5575 2.15929 27.035 1.98689 25.9007 1.90221V0.456543H34.7747V1.90524C33.2704 2.12904 32.0725 2.44358 31.8025 4.12213C31.5326 5.80068 31.5357 8.03874 31.4993 9.75661C31.3749 15.7722 31.563 21.8059 31.5448 27.8214C31.5448 27.9061 31.5387 27.9152 31.4659 27.9696H29.5735L14.5126 7.18586L14.3307 7.2282C14.3731 10.6034 14.2791 13.9847 14.3307 17.363C14.358 19.2139 14.2488 22.1295 14.6461 23.8564C15.0434 25.5833 16.5871 26.0128 18.1186 26.0128V27.5341H12.5898V0.456543H15.8258H15.8228Z" fill="#F5F5F5"></path><path d="M84.3778 25.6497C84.2656 25.6255 84.208 25.6739 84.12 25.7163C83.4498 26.0338 82.3974 27.0803 81.6392 27.5188C81.4027 27.6549 80.8871 27.9362 80.6354 27.9664C76.1408 28.5138 73.4113 21.3188 77.6147 18.9507C79.6679 17.7923 82.2367 17.3477 84.1261 15.8748C84.211 14.1237 84.5568 10.6426 82.0153 10.5186C79.8954 10.4158 79.9227 13.3404 79.398 14.6439C78.8309 16.0533 77.178 15.6782 76.3834 14.6802C74.8761 12.793 77.2993 11.2928 78.7156 10.4158C81.2541 8.84609 83.9957 7.57887 86.6736 9.72317C89.9764 12.3695 88.2082 19.3227 88.6935 23.1334C88.7784 23.7927 89.1545 24.6728 89.943 24.6396C90.1674 24.6305 90.8589 24.3341 90.9286 24.3764L91.3623 25.6074C90.3706 26.2334 89.385 26.8958 88.375 27.4886C87.7048 27.8817 87.5441 28.1055 86.704 27.9332C85.5576 27.6942 84.6781 26.7446 84.3809 25.6497H84.3778ZM84.1595 17.5413C84.0473 17.5141 84.0018 17.5866 83.9199 17.629C83.2496 17.9768 81.4057 19.1412 80.9599 19.6795C79.5527 21.3853 80.4049 25.1598 83.0222 24.8452C83.559 24.7817 83.7318 24.5186 84.1564 24.2736V17.5413H84.1595Z" fill="#F5F5F5"></path><path d="M58.3364 9.07017C58.5336 9.35447 58.3455 11.0239 58.0089 11.0239H54.7365L54.6273 11.1328V22.426C54.6273 22.677 54.8517 23.4996 54.9549 23.7658C55.5917 25.3959 56.8776 25.1026 58.2636 24.6338L58.5457 26.0734C57.5327 26.512 56.5319 27.3316 55.519 27.7308C54.1299 28.2782 52.1981 27.9304 51.1699 26.8083C50.439 26.0069 50.1085 24.6489 50.0387 23.5873C49.787 19.6435 50.3541 15.3277 50.0448 11.4171C50.0326 11.278 50.0023 11.154 49.969 11.0209H47.6428C47.6489 10.8939 47.5276 10.782 47.5094 10.6792C47.4669 10.4191 48.307 9.42705 48.4435 9.10344C48.768 8.96129 49.8567 9.23046 50.0084 8.92198L50.1145 5.4802L54.2391 2.27734C54.9185 2.44974 54.6364 2.86105 54.6243 3.30867C54.5818 5.14146 54.6667 6.98333 54.6243 8.81914L54.7365 9.07017H58.3364Z" fill="#F5F5F5"></path><path d="M66.9933 8.49219V12.6538C66.9933 12.7173 66.9387 12.808 66.9933 12.9078C67.5119 12.2818 67.8758 11.5015 68.358 10.827C69.2891 9.52654 70.6963 7.91452 72.4978 8.76741C74.4843 9.70498 73.8565 12.8927 72.4826 14.1388C70.8601 15.6117 70.5204 13.2526 69.2648 13.0681C68.2579 12.9229 67.2783 14.3656 67.0084 15.2064C67.1297 18.1068 66.787 21.2219 66.9872 24.0981C67.0145 24.5095 67.0964 25.066 67.3542 25.3986C67.8394 26.0156 69.0283 26.0489 69.7531 26.1578V27.5339H60.2969V26.1578C61.0399 26.058 61.8497 26.0186 62.1742 25.2383C62.3501 24.8149 62.3865 24.0014 62.4107 23.5175C62.5533 20.5203 62.5715 16.6551 62.4107 13.6639C62.3895 13.2526 62.3319 12.5237 62.1711 12.1638C61.883 11.5257 61.1279 11.4833 60.5516 11.2444L60.588 10.0467C62.7747 9.74429 64.9006 9.17873 66.9902 8.49219H66.9933Z" fill="#F5F5F5"></path><path d="M46.2612 26.1578V27.5339H37.2781C37.2053 27.4794 37.1992 27.4704 37.1992 27.3857C37.1992 27.0016 37.2872 26.557 37.2417 26.1578C37.9241 26.058 38.8369 25.9642 39.1463 25.2656C39.4101 24.6758 39.3161 24.1254 39.3525 23.5144C39.5345 20.4114 39.5436 16.767 39.3525 13.667C39.3191 13.1195 39.4222 12.5782 39.1493 12.061C38.8369 11.4652 38.1273 11.4349 37.5419 11.3079V10.0588L44.0078 8.60107V24.2403C44.0078 24.4157 44.1625 24.9783 44.2414 25.1658C44.5871 25.9914 45.4696 26.0489 46.2612 26.1608V26.1578Z" fill="#F5F5F5"></path><path d="M41.0057 0.0391504C44.7391 -0.541537 45.0484 5.69177 41.5668 5.88836C38.3277 6.07285 37.9244 0.520032 41.0057 0.0391504Z" fill="#F5F5F5"></path><path d="M111 0.311523H109.617V10.7367H111V0.311523Z" fill="#A2BEF6"></path><path d="M99.8711 10.7364L103.792 0.135793L104.496 0.0874023L108.602 10.7364H107.001L105.94 7.69077L102.416 7.72706L101.29 10.7333H99.8711V10.7364ZM102.71 6.60803H105.618L104.129 2.5523L102.71 6.60803Z" fill="#A2BEF6"></path><path d="M96.888 5.01433C99.8996 5.75228 99.2384 9.8927 96.5635 10.7365C95.1078 11.1962 92.7422 10.543 92.7422 8.74343C92.7422 7.72118 93.2396 7.44898 94.1646 7.76049C95.3049 8.14459 94.4769 9.02167 94.6741 9.87456C96.6302 10.5399 97.3793 7.11024 96.5544 5.96097C96.1692 5.42565 95.3747 5.37423 94.7772 5.44984L94.9197 4.68769C95.7204 4.61208 96.6666 4.06466 96.9092 3.26622C97.2065 2.28026 96.9396 1.00698 95.6446 1.28523C94.9561 1.43342 94.5831 2.16533 94.2313 2.6946L93.7673 2.47382C93.9765 1.24289 95.2837 0.0996592 96.5605 0.0875615C98.9473 0.0633662 99.7024 2.80348 98.0162 4.29452C97.6553 4.61208 97.2489 4.73306 96.888 5.01735V5.01433Z" fill="#A2BEF6"></path></g><defs><clipPath id="clip0_108_1844"><rect width="111" height="28" fill="white"></rect></clipPath></defs></svg> 